<svg width="100" height="100" xmlns="http://www.w3.org/2000/svg" viewBox="0 0 100 100"><rect x="44" y="82" width="12" height="14" fill="#6d4c41"/><path d="M50 16 68 42H32z" fill="#2e7d32"/><path d="M50 32 76 62H24z" fill="#388e3c"/><path d="M50 50 84 86H16z" fill="#43a047"/><path d="M50 0l3.4 7.4 8.1 1-6 5.5 1.6 8-7.1-4-7.1 4 1.6-8-6-5.5 8.1-1z" fill="#ffca28"/><g fill="#ffd54f"><circle cx="43" cy="38" r="3"/><circle cx="58" cy="36" r="3"/><circle cx="38" cy="57" r="3"/><circle cx="52" cy="55" r="3"/><circle cx="66" cy="58" r="3"/><circle cx="32" cy="79" r="3"/><circle cx="50" cy="76" r="3"/><circle cx="69" cy="80" r="3"/></g></svg>
